Coordinates
version=1
nRows=16
nColumns=22
inDegrees=yes

Units are S.I. units (second, meters, Newtons, ...)
If the header above contains a line with 'inDegrees', this indicates whether rotational values are in degrees (yes) or radians (no).

endheader
time	pelvis_tilt	pelvis_list	pelvis_rotation	pelvis_tx	pelvis_ty	pelvis_tz	hip_flexion_r	hip_adduction_r	hip_rotation_r	knee_angle_r	ankle_angle_r	subtalar_angle_r	hip_flexion_l	hip_adduction_l	hip_rotation_l	knee_angle_l	ankle_angle_l	subtalar_angle_l	lumbar_extension	lumbar_bending	lumbar_rotation
      2.50000000	     -0.41770758	     -4.93059734	     17.95793927	     -0.30838308	      0.92262761	      0.28554055	     28.77876832	      5.03654399	      7.72039928	    -23.59186422	      3.68284528	      3.28080628	     -5.36837444	      1.53236241	     11.92216100	    -28.62476477	     16.69561607	     -6.95373476	     -6.44221609	      4.94753168	     -7.64686482
      2.51000000	     -0.36742727	     -5.19935963	     17.99979043	     -0.29847026	      0.92310553	      0.28381516	     28.64187879	      5.51354328	      7.87791810	    -24.34568148	      3.43031283	      3.33525053	     -4.98768460	      1.26192701	     11.46722992	    -30.23836211	     15.48091246	     -5.84121461	     -6.39488033	      5.37366292	     -7.52045535
      2.52000000	     -0.31625836	     -5.41898030	     18.04083850	     -0.28857259	      0.92374437	      0.28198920	     28.43205794	      5.90177530	      7.92976319	    -25.00617374	      3.33019399	      3.39275147	     -4.45043581	      1.02759879	     10.83965919	    -32.07907207	     13.99582743	     -4.59924039	     -6.36754606	      5.74891399	     -7.37072840
      2.53000000	     -0.26107110	     -5.58382283	     18.10431154	     -0.27874119	      0.92454124	      0.28006138	     28.13666215	      6.18505480	      7.85850544	    -25.55954118	      3.37435911	      3.44212886	     -3.74780012	      0.81417589	     10.04744612	    -34.14151718	     12.23447341	     -3.22302217	     -6.36940518	      6.06451683	     -7.22069262
      2.54000000	     -0.20517400	     -5.70817490	     18.20180131	     -0.26903081	      0.92546653	      0.27806557	     27.75616053	      6.37615455	      7.67132149	    -25.98654272	      3.53447732	      3.48289962	     -2.86100084	      0.58542799	      9.08941224	    -36.41635895	     10.23153680	     -1.76028410	     -6.39475498	      6.32790479	     -7.05889837
      2.55000000	     -0.12869411	     -5.80385799	     18.35059896	     -0.25948473	      0.92652456	      0.27599771	     27.26431316	      6.49394057	      7.38718703	    -26.27026296	      3.80351015	      3.52985317	     -1.81177268	      0.30615713	      8.00060861	    -38.87403161	      8.06817951	     -0.22329608	     -6.46487996	      6.55947752	     -6.89729019
      2.56000000	     -0.06278854	     -5.90095444	     18.52601629	     -0.25014706	      0.92761999	      0.27397325	     26.73042385	      6.58066227	      7.02146312	    -26.44426413	      4.09581358	      3.57706674	     -0.56018406	     -0.07021526	      6.75379071	    -41.49512357	      5.83307733	      1.17933910	     -6.54339638	      6.76732769	     -6.68277408
      2.57000000	      0.02455085	     -5.99807344	     18.74694924	     -0.24103275	      0.92879157	      0.27197390	     26.10347375	      6.64391421	      6.59421884	    -26.47546816	      4.40463894	      3.64586864	      0.83487350	     -0.56416491	      5.40663085	    -44.22893375	      3.67355340	      2.43535537	     -6.66490738	      6.96170325	     -6.45309357
      2.58000000	      0.13600173	     -6.10910358	     18.99344757	     -0.23213102	      0.93001431	      0.27005827	     25.39693946	      6.71894786	      6.13622357	    -26.38130367	      4.71612256	      3.73321374	      2.34422281	     -1.18986046	      3.99946170	    -47.02879350	      1.71282096	      3.42485747	     -6.82781413	      7.15273927	     -6.18305313
      2.59000000	      0.26403305	     -6.24153798	     19.25475592	     -0.22346357	      0.93122608	      0.26821785	     24.64931649	      6.81808822	      5.66531264	    -26.20807790	      5.04395708	      3.83901014	      3.95487422	     -1.94627262	      2.56540368	    -49.86288048	      0.09137433	      4.11809049	     -7.02348469	      7.34893923	     -5.85088999
      2.60000000	      0.38390842	     -6.39770521	     19.51904938	     -0.21501181	      0.93237188	      0.26646661	     23.89601299	      6.94617431	      5.21160870	    -25.97306597	      5.38246968	      3.97569206	      5.66317850	     -2.81494331	      1.14111481	    -52.68558234	     -1.11053346	      4.47109603	     -7.22026033	      7.54491610	     -5.46119209
      2.61000000	      0.54311869	     -6.57534736	     19.74672770	     -0.20668484	      0.93353664	      0.26484563	     23.08996450	      7.13469738	      4.78337608	    -25.67965324	      5.67347061	      4.07663927	      7.36593217	     -3.80407605	     -0.28754578	    -55.41964077	     -1.86532619	      4.44051982	     -7.46645010	      7.74841986	     -4.98020324
      2.62000000	      0.66861607	     -6.75547303	     19.94827860	     -0.19849588	      0.93460925	      0.26328727	     22.31085356	      7.33688188	      4.42009796	    -25.36038277	      6.00809460	      4.17393460	      9.11496274	     -4.83102163	     -1.65894765	    -58.02710987	     -2.23954985	      3.98340490	     -7.68000997	      7.92056258	     -4.45378264
      2.63000000	      0.81958454	     -6.92026035	     20.10165334	     -0.19040522	      0.93571194	      0.26177040	     21.49642739	      7.56582314	      4.15077641	    -25.02853702	      6.32744779	      4.21690251	     10.80368822	     -5.87254857	     -2.97157680	    -60.44464216	     -2.24678046	      3.25112327	     -7.93431774	      8.06959610	     -3.84925051
      2.64000000	      0.96822560	     -7.04849242	     20.21042587	     -0.18239805	      0.93683081	      0.26023893	     20.67341633	      7.78509013	      3.97977001	    -24.70290968	      6.66251520	      4.21111392	     12.43466731	     -6.86822113	     -4.21256110	    -62.63260388	     -1.96592794	      2.31746788	     -8.19870797	      8.16920082	     -3.20721171
      2.65000000	      1.09819894	     -7.12824106	     20.28138915	     -0.17446031	      0.93797590	      0.25862786	     19.84735548	      7.96393052	      3.88209239	    -24.37470941	      7.00150469	      4.17040323	     14.00322709	     -7.77396260	     -5.37387270	    -64.55346286	     -1.48093814	      1.31485293	     -8.45187470	      8.20657625	     -2.53882499
